<?xml version="1.0" encoding="UTF-8"?>
<svg width="75px" height="50px" viewBox="0 0 75 50" version="1.1" xmlns="http://www.w3.org/2000/svg" xmlns:xlink="http://www.w3.org/1999/xlink">
    <!-- Generator: Sketch 52 (66869) - http://www.bohemiancoding.com/sketch -->
    <title>icon/极速达</title>
    <desc>Created with Sketch.</desc>
    <defs>
        <radialGradient cx="0%" cy="0%" fx="0%" fy="0%" r="177.872171%" gradientTransform="translate(0.000000,0.000000),scale(0.666667,1.000000),rotate(32.509512),translate(-0.000000,-0.000000)" id="radialGradient-1">
            <stop stop-color="#FFF8F8" offset="0%"></stop>
            <stop stop-color="#26D0C8" offset="100%"></stop>
        </radialGradient>
    </defs>
    <g id="Page-1" stroke="none" stroke-width="1" fill="none" fill-rule="evenodd">
        <g id="20181011_官网首页" transform="translate(-1083.000000, -810.000000)" fill="url(#radialGradient-1)" fill-rule="nonzero">
            <g id="产品解决方案" transform="translate(320.000000, 450.000000)">
                <g id="极速达" transform="translate(640.000000, 300.000000)">
                    <path d="M196.128163,82.0939244 L190.665602,72.3010014 C189.548484,70.9461619 188.793924,69.8408012 186.998324,69.8408012 L178.441606,69.8408012 L178.441606,62.4600402 C178.441606,61.1050405 177.343587,60 175.996965,60 L136.881131,60 C135.53467,60 134.436491,61.1050405 134.436491,62.4600402 L134.436491,64.508072 L132.409477,64.508072 C130.512175,64.508072 128.974249,66.0553849 128.974249,67.9642659 C128.974249,69.8729868 130.512335,71.4204598 132.409477,71.4204598 L134.436491,71.4204598 L134.436491,75.9285319 L129.422433,75.9285319 C127.525131,75.9285319 125.987204,77.4760049 125.987204,79.3847257 C125.987204,81.2936067 127.525131,82.8410798 129.422433,82.8410798 L134.436491,82.8410798 L134.436491,88.901909 L126.435229,88.901909 C124.538086,88.901909 123,90.4492219 123,92.3581029 C123,94.2666637 124.538086,95.8142968 126.435229,95.8142968 L134.436491,95.8142968 L134.436491,99.3633647 C134.436491,100.718364 135.53467,101.823565 136.881131,101.823565 L141.756406,101.823565 C142.355789,97.585308 145.951128,94.3038133 150.327289,94.3038133 C154.703449,94.3038133 158.298949,97.585308 158.898331,101.823565 L175.982641,101.821323 C176.58457,97.5832263 180.179592,94.3038133 184.553843,94.3038133 C188.930003,94.3038133 192.525502,97.5856282 193.125044,101.823565 L195.555519,101.823565 C196.901663,101.823565 198,100.718364 198,99.3633647 L198,87.0625234 C197.999841,84.7318664 196.128163,82.0939244 196.128163,82.0939244 Z M180.886564,87.0625234 L180.886564,74.7612017 L186.86702,74.7612017 C187.261091,74.7612017 187.807951,75.342625 187.807951,75.342625 L192.955065,84.9722179 C193.410729,85.6474759 193.905387,86.4473132 193.905387,87.0625234 L180.886564,87.0625234 Z M184.747217,96.3728219 C188.48739,96.3728219 191.518043,99.4229322 191.518043,103.186411 C191.518043,106.95005 188.48739,110 184.747217,110 C181.007523,110 177.97671,106.95005 177.97671,103.186411 C177.97671,99.4230923 181.007682,96.3728219 184.747217,96.3728219 Z M150.416416,96.3728219 C154.156111,96.3728219 157.186924,99.4229322 157.187083,103.186411 C157.187083,106.95005 154.15627,110 150.416416,110 C146.676563,110 143.64575,106.95005 143.64575,103.186411 C143.64575,99.4230923 146.676563,96.3728219 150.416416,96.3728219 Z" id="icon/极速达"></path>
                </g>
            </g>
        </g>
    </g>
</svg>