<?xml version="1.0" encoding="UTF-8"?>
<svg width="54px" height="60px" viewBox="0 0 54 60" version="1.1" xmlns="http://www.w3.org/2000/svg" xmlns:xlink="http://www.w3.org/1999/xlink">
    <!-- Generator: Sketch 52 (66869) - http://www.bohemiancoding.com/sketch -->
    <title>icon/精准营销</title>
    <desc>Created with Sketch.</desc>
    <defs>
        <radialGradient cx="0%" cy="0%" fx="0%" fy="0%" r="146.572921%" gradientTransform="translate(0.000000,0.000000),scale(1.000000,0.900021),rotate(130.708035),translate(-0.000000,-0.000000)" id="radialGradient-1">
            <stop stop-color="#FFF8F8" offset="0%"></stop>
            <stop stop-color="#FF9800" offset="100%"></stop>
        </radialGradient>
    </defs>
    <g id="Page-1" stroke="none" stroke-width="1" fill="none" fill-rule="evenodd">
        <g id="20181011_产品介绍" transform="translate(-1109.000000, -804.000000)" fill="url(#radialGradient-1)" fill-rule="nonzero">
            <g id="天狗新闻中心" transform="translate(320.000000, 310.000000)">
                <g id="list" transform="translate(655.000000, 434.000000)">
                    <path d="M163.513027,104.487464 C164.604992,104.487464 165.492964,105.357436 165.492964,106.431401 L165.492964,118.050028 C165.488212,118.570373 165.276937,119.067516 164.905622,119.432079 C164.534307,119.796643 164.033372,119.998761 163.513027,119.993965 L159.136168,119.993965 C158.053769,120.002286 157.16913,119.132414 157.159231,118.050028 L157.159231,106.431401 C157.159231,105.357436 158.044203,104.487464 159.139168,104.487464 L163.513027,104.487464 Z M168.40887,99.6996177 L168.40887,118.050028 C168.40887,119.123993 169.296841,119.996965 170.391806,119.993965 L174.771665,119.993965 C175.86063,119.993965 176.745602,119.123993 176.745602,118.050028 L176.745602,99.7026176 C176.735703,98.6202317 175.851065,97.7503593 174.768665,97.75868 L170.391806,97.75868 C169.309407,97.7503593 168.424768,98.6202317 168.41487,99.7026176 L168.40887,99.7026176 L168.40887,99.6996177 Z M181.647444,119.993965 L186.024304,119.993965 C187.116269,119.993965 188.00124,119.123993 188.00124,118.050028 L188.00124,85.9450598 C187.991342,84.8626739 187.106703,83.9928015 186.024304,84.0011222 L181.647444,84.0011222 C180.565045,83.9928015 179.680406,84.8626739 179.670508,85.9450598 L179.670508,118.050028 C179.670508,119.120993 180.555479,119.993965 181.647444,119.993965 Z M145.249614,72.3014983 C147.781533,72.3014983 150.05846,70.8015465 151.027429,68.5036204 C151.994035,66.2031501 151.45634,63.5456067 149.671472,61.8018357 C147.867645,60.0399136 145.190117,59.5166643 142.855691,60.4698785 C140.533484,61.4024896 139.007974,63.6492361 138.997815,66.1516959 C138.997815,69.5475868 141.793725,72.3014983 145.249614,72.3014983 Z M135.571925,91.1228934 C135.766919,92.7878399 136.897883,94.2067943 138.502831,94.7827757 L141.097748,118.203023 C141.214744,119.22299 142.093716,119.999965 143.140682,119.999965 L147.25655,119.999965 C148.29586,120.005979 149.174538,119.231813 149.299484,118.200023 L150.511445,107.253375 L153.421352,80.4792354 C153.438504,80.3443003 153.549534,80.2408397 153.685343,80.2332433 L168.420869,79.3002733 C169.49812,79.2623255 170.396187,78.4637639 170.559801,77.3983345 C170.623405,76.8087706 170.439754,76.21922 170.052582,75.7700777 C169.66541,75.3209354 169.109366,75.0523965 168.516866,75.0284106 L151.9034,73.9934439 L149.131489,73.927446 C149.055001,73.9245869 148.981636,73.9579346 148.933496,74.0174431 L145.6906,78.0133147 C145.571438,78.1696118 145.386157,78.2613395 145.189616,78.2613395 C144.993075,78.2613395 144.807795,78.1696118 144.688632,78.0133147 L141.445736,73.9934439 C141.397429,73.9330318 141.325057,73.8968457 141.247743,73.8944471 L139.303805,73.8944471 C137.791854,73.8944471 136.3549,74.5244268 135.349932,75.6343912 C134.345024,76.7346666 133.86485,78.2156589 134.032975,79.6962606 L135.568925,91.1228934 L135.571925,91.1228934 Z" id="icon/精准营销"></path>
                </g>
            </g>
        </g>
    </g>
</svg>