<?xml version="1.0" encoding="UTF-8"?>
<svg width="60px" height="60px" viewBox="0 0 60 60" version="1.1" xmlns="http://www.w3.org/2000/svg" xmlns:xlink="http://www.w3.org/1999/xlink">
    <!-- Generator: Sketch 52 (66869) - http://www.bohemiancoding.com/sketch -->
    <title>icon/专柜收银</title>
    <desc>Created with Sketch.</desc>
    <defs>
        <radialGradient cx="0%" cy="0%" fx="0%" fy="0%" r="138.344065%" gradientTransform="translate(0.000000,0.000000),scale(0.999969,1.000000),rotate(133.710917),translate(-0.000000,-0.000000)" id="radialGradient-1">
            <stop stop-color="#FFF8F8" offset="0%"></stop>
            <stop stop-color="#26A8FF" offset="100%"></stop>
        </radialGradient>
    </defs>
    <g id="Page-1" stroke="none" stroke-width="1" fill="none" fill-rule="evenodd">
        <g id="20181011_官网首页" transform="translate(-770.000000, -540.000000)" fill="url(#radialGradient-1)" fill-rule="nonzero">
            <g id="产品解决方案" transform="translate(320.000000, 450.000000)">
                <g id="专柜收银" transform="translate(320.000000, 30.000000)">
                    <path d="M135.454545,60 L184.54733,60 C187.547423,60 190.001875,62.4544517 190.001875,65.4545455 L190.001875,76.3636364 C190.001875,79.3637301 187.44617,82.2213194 184.446076,82.2213194 L180.000313,82.2213194 L180.000313,120 L176.364574,120 L170.910028,114.545455 L165.455483,120 L160.000938,114.545455 L154.546392,120 L149.091847,114.545455 L143.637301,120 L139.999687,120 L139.999687,82.2213194 L135.555799,82.2213194 C132.555705,82.2213194 130,79.3637301 130,76.3636364 L130,65.4545455 C130,62.4544517 132.454452,60 135.454545,60 Z M187.27554,76.3636364 L187.277415,76.3636364 L187.277415,65.4545455 C187.277415,63.9563736 186.051127,62.7282103 184.55108,62.7282103 L135.458296,62.7282103 C133.960124,62.7282103 132.73196,63.9544986 132.73196,65.4545455 L132.73196,76.3636364 C132.73196,77.8618082 133.958249,79.0899716 135.458296,79.0899716 L140.003438,78.8874652 L140.003438,69.9978124 L137.781493,69.9978124 C136.963968,69.9978124 136.821463,68.9984062 136.821463,68.1808807 C136.821463,67.3633551 137.367105,66.8177131 138.184631,66.8177131 L181.822869,66.8177131 C182.640395,66.8177131 183.186037,67.3633551 183.186037,68.1808807 C183.186037,68.9984062 183.043533,69.9978124 182.226007,69.9978124 L178.892153,69.9978124 L179.094659,79.0899716 L184.549205,79.0899716 C186.049252,79.0899716 187.27554,77.8636832 187.27554,76.3636364 Z M149.444693,82.5802763 L156.092673,89.3842735 L152.26745,89.3842735 C151.429394,89.3842735 150.749689,90.4347064 150.749689,91.2730963 C150.749689,92.1110971 151.429171,92.93926 152.26745,92.93926 L158.244618,92.93926 L158.244618,95.6320677 L152.824042,95.6320677 C151.985763,95.6320677 151.306281,96.7073455 151.306281,97.545513 C151.306281,98.3837917 151.985763,99.2367995 152.824042,99.2367995 L158.244618,99.2367995 L158.244618,104.482128 C158.244618,105.320184 159.128251,106 159.966475,106 C160.804642,106 161.688275,105.320517 161.688275,104.482128 L161.688275,99.2367995 L166.989574,99.2367995 C167.827574,99.2367995 168.507391,98.3837917 168.507391,97.545513 C168.507391,96.7073455 167.82763,95.6320677 166.989574,95.6320677 L161.688275,95.6320677 L161.688275,92.93926 L167.54611,92.9392599 C168.384167,92.9392599 169.063705,91.8332456 169.063705,90.9951892 C169.063705,91.0461574 168.384222,89.3842734 167.54611,89.3842734 L164.143695,89.3842734 L170.402661,82.5802762 C170.995603,81.9876117 170.773278,81.0372253 170.180502,80.4445608 C169.587615,79.8518964 168.237654,79.8518964 167.644767,80.4445608 L159.923677,88.2215106 L151.702298,80.4445609 C151.109411,79.8518964 150.037357,79.8517297 149.444471,80.4445609 C148.851806,81.0372809 148.851806,81.9876673 149.444693,82.5802763 Z" id="icon/专柜收银"></path>
                </g>
            </g>
        </g>
    </g>
</svg>