<?xml version="1.0" encoding="UTF-8"?>
<svg width="81px" height="95px" viewBox="0 0 81 95" version="1.1" xmlns="http://www.w3.org/2000/svg" xmlns:xlink="http://www.w3.org/1999/xlink">
    <!-- Generator: Sketch 52 (66869) - http://www.bohemiancoding.com/sketch -->
    <title>icon/Android</title>
    <desc>Created with Sketch.</desc>
    <defs>
        <radialGradient cx="0%" cy="0%" fx="0%" fy="0%" r="150.341091%" gradientTransform="translate(0.000000,0.000000),scale(1.000000,0.851550),rotate(48.305848),translate(-0.000000,-0.000000)" id="radialGradient-1">
            <stop stop-color="#FFF8F8" offset="0%"></stop>
            <stop stop-color="#666666" offset="100%"></stop>
        </radialGradient>
    </defs>
    <g id="Page-1" stroke="none" stroke-width="1" fill="none" fill-rule="evenodd">
        <g id="20181011_下载" transform="translate(-660.000000, -442.000000)" fill="url(#radialGradient-1)">
            <g id="下载">
                <g id="Android" transform="translate(600.000000, 412.000000)">
                    <g id="text" transform="translate(60.000000, 30.000000)">
                        <path d="M75.1722383,29.7843495 C71.9363473,29.7843495 69.4472003,32.5224112 69.4472003,35.7583023 L69.4472003,58.6584543 C69.4472003,61.8943454 71.9363473,64.632407 75.1722383,64.632407 C78.4081294,64.632407 80.8972763,61.8943454 80.8972763,58.6584543 L80.8972763,35.7583023 C80.8972763,32.2734965 78.4081294,29.7843495 75.1722383,29.7843495 Z M5.72503802,29.7843495 C2.48914696,29.7843495 0,32.5224112 0,35.7583023 L0,58.6584543 C0,61.8943454 2.48914696,64.632407 5.72503802,64.632407 C8.96092907,64.632407 11.450076,61.8943454 11.450076,58.6584543 L11.450076,35.7583023 C11.450076,32.2734965 8.96092907,29.7843495 5.72503802,29.7843495 Z M14.9348818,30.0332642 L14.9348818,71.8509332 C14.9348818,74.3400802 16.9261994,76.3313978 19.4153463,76.3313978 L24.6425549,76.3313978 L24.6425549,89.0260473 C24.6425549,92.2619383 27.1317019,95 30.367593,95 C33.603484,95 36.092631,92.2619383 36.092631,89.0260473 L36.092631,76.3313978 L45.05356,76.3313978 L45.05356,89.0260473 C45.05356,92.2619383 47.542707,95 50.7785981,95 C54.0144891,95 56.5036361,92.2619383 56.5036361,89.0260473 L56.5036361,76.3313978 L61.7308447,76.3313978 C64.2199917,76.3313978 66.2113092,74.3400802 66.2113092,71.8509332 L66.2113092,30.0332642 L14.9348818,30.0332642 Z M52.5210009,8.37768566 L57.2503802,1.40807416 C57.4992949,0.910244765 57.4992949,0.412415372 57.0014655,0.163500676 C56.7525508,-0.0854140203 56.0058067,-0.0854140203 55.756892,0.412415372 L50.7785981,7.63094157 C47.7916217,6.38636809 44.306816,5.639624 40.3241808,5.639624 C36.5904604,5.639624 32.8567399,6.38636809 29.6208489,7.63094157 L24.6425549,0.412415372 C24.6425549,0.163500676 24.1447255,-0.0854140203 23.6468962,0.163500676 C23.3979815,0.412415372 23.1490668,0.910244765 23.3979815,1.40807416 L28.1273607,8.37768566 C20.6599198,11.8624914 15.4327112,18.5831882 14.6859671,26.2995438 L65.9623945,26.2995438 C65.4645652,18.3342735 60.2373565,11.8624914 52.5210009,8.37768566 Z M29.6208489,19.0810176 C28.1273607,19.0810176 26.8827872,17.8364441 26.8827872,16.3429559 C26.8827872,14.8494678 28.1273607,13.6048943 29.6208489,13.6048943 C31.114337,13.6048943 32.3589105,14.8494678 32.3589105,16.3429559 C32.3589105,17.8364441 31.114337,19.0810176 29.6208489,19.0810176 Z M51.5253422,19.0810176 C50.031854,19.0810176 48.7872805,17.8364441 48.7872805,16.3429559 C48.7872805,14.8494678 50.031854,13.6048943 51.5253422,13.6048943 C53.0188303,13.6048943 54.2634038,14.8494678 54.2634038,16.3429559 C54.5123185,17.8364441 53.267745,19.0810176 51.5253422,19.0810176 Z" id="icon/Android"></path>
                    </g>
                </g>
            </g>
        </g>
    </g>
</svg>