<?xml version="1.0" encoding="utf-8"?>
<!-- Generator: Adobe Illustrator 21.0.0, SVG Export Plug-In . SVG Version: 6.00 Build 0)  -->
<svg version="1.1" id="图层_1" xmlns="http://www.w3.org/2000/svg" xmlns:xlink="http://www.w3.org/1999/xlink" x="0px" y="0px"
	 viewBox="0 0 1024 1024" style="enable-background:new 0 0 1024 1024;" xml:space="preserve">
<g id="Page-1">
	<g id="_x32_0181011_x5F_官网首页" transform="translate(-391.000000, -1775.000000)">
		<g id="大商天狗数据概览" transform="translate(0.000000, 1558.000000)">
			<g id="数据" transform="translate(320.000000, 203.000000)">
				<g id="选中">
					<g transform="translate(68.000000, 0.000000)">
						<path id="icon_x2F_数据_10_" d="M826.5,247.7L546.7,494.9c-100.2-71.7-111.3-80.8-214.3-164.7L89.6,532
							C60.6,558.6,33.7,573.3,3,593.5v115.4C53.9,697,54.5,697,89.6,664.1c39.3-36.8,41.2-35.7,81.1-67.3
							c57.6-45.1,102.7-95.2,161.7-135.1c68.6,36.3,154.2,124.8,214.3,165l379-313.4l94.9,103C1024.4,54,1086.4,116,728,116
							C774.2,183.8,783.3,192.1,826.5,247.7L826.5,247.7z M760.9,511.3v428.5h164.7V396.1c-46.2,24.4-39.3,14.1-78.6,53.1
							C806.6,489.7,818.8,495.8,760.9,511.3z M250.2,610.4l1.7,329.1c4.4,0,4.7,0,7.5,0c67,0.8,77.8,0.6,155.6,0.3V593.5
							C298.4,516,368.4,530.9,250.2,610.4z M513.7,939.8h164.7c0-193.2,30.2-377.6-53.1-302.8c-139.2,124.6-87.2,16.3-109.3,76.7
							L513.7,939.8z M3,808v131.8h164.7V692.6c-52.3,14.1-41.5,18.3-82.5,49.3C51.4,767,37,785.3,3,808z"/>
					</g>
				</g>
			</g>
		</g>
	</g>
</g>
</svg>
