<?xml version="1.0" encoding="UTF-8"?>
<svg width="62px" height="60px" viewBox="0 0 62 60" version="1.1" xmlns="http://www.w3.org/2000/svg" xmlns:xlink="http://www.w3.org/1999/xlink">
    <!-- Generator: Sketch 52 (66869) - http://www.bohemiancoding.com/sketch -->
    <title>icon/云货架</title>
    <desc>Created with Sketch.</desc>
    <defs>
        <radialGradient cx="0%" cy="0%" fx="0%" fy="0%" r="139.142932%" gradientTransform="translate(0.000000,0.000000),scale(0.967742,1.000000),rotate(42.772476),translate(-0.000000,-0.000000)" id="radialGradient-1">
            <stop stop-color="#FFF8F8" offset="0%"></stop>
            <stop stop-color="#BC65E4" offset="100%"></stop>
        </radialGradient>
    </defs>
    <g id="Page-1" stroke="none" stroke-width="1" fill="none" fill-rule="evenodd">
        <g id="20181011_官网首页" transform="translate(-1089.000000, -540.000000)" fill="url(#radialGradient-1)" fill-rule="nonzero">
            <g id="产品解决方案" transform="translate(320.000000, 450.000000)">
                <g id="云货架" transform="translate(640.000000, 30.000000)">
                    <path d="M189.074389,88.9025059 C186.750807,89.7994033 188.526074,84.2460496 185.365115,82.9709593 C182.204156,81.695869 180.304808,87.4337753 176.514431,86.158685 C172.724053,84.8835947 172.089782,74.0460264 164.503481,77.1079208 C159.606074,79.08487 156.068712,79.7063367 153.758994,72.8736983 C151.768838,67.4210096 147.406576,71.3266727 144.565872,72.8736983 C144.565872,72.8736983 141.627428,74.3011843 140.440682,71.7859568 C139.637965,70.0844383 140.177269,69.0673022 140.177269,69.0673022 C140.853825,68.3682395 142.040571,66.3185878 147.941027,63.3203081 C148.422103,63.085423 150.062197,62.2982785 151.297467,61.846684 C166.824983,56.1472262 183.894854,64.0836845 189.478521,79.553941 C191.007011,83.7965523 192.115426,87.7287797 189.074389,88.9025059 Z M135.334026,86.1444619 C135.902677,86.358302 136.454076,86.5035775 136.501003,88.3459964 C136.521016,89.1341498 136.777047,88.9264194 137.398147,91.1720796 C138.206957,92.6513098 140.545052,91.1720796 142.435955,89.9338437 C149.929177,86.1064459 144.324098,97.3815879 151.876669,94.2859983 C159.42924,91.1904087 164.463598,99.8390516 164.463598,105.119883 C164.463598,110.400714 167.259236,114.1996 171.386788,113.459646 C173.105854,112.826272 175.468793,112.131801 177.002909,111.151531 C178.396994,111.832101 179.868241,112.347562 181.385801,112.687106 C181.592835,112.733947 181.795727,112.776715 182,112.816768 C181.206373,113.495625 178.911065,115.249114 178.019442,115.693087 C171.417417,119.696786 163.475689,120.975159 155.920718,119.250299 C143.411772,116.410639 134.61286,106.148352 133.207795,94.2866772 C132.989114,92.4391705 132.942914,90.5758439 133.069773,88.7200468 L133.228498,86.6088004 C133.228498,86.6088004 134.001422,85.6427863 135.334026,86.1444619 Z M156.338374,60 L156.096876,60.1643518 L156,60.2202315 C156.060202,60.1791435 156.169533,60.1101157 156.338374,60 Z M172.240934,89.3763576 C172.506057,89.5465755 172.688373,89.9751722 172.785098,90.1948958 C174.016078,92.9956935 169.669724,97.2742002 167.089467,95.637802 C162.666568,91.8658802 158.705025,88.0586941 153.632191,85.3406318 C144.279805,80.3303913 134.21764,79.1232678 134.536344,79.119877 C132.331853,78.9910267 131.766813,80.4083796 133.57188,81.662296 C135.434702,82.9596147 129.65348,81.0295735 129.003545,78.1311208 C128.95066,77.4956856 129.40297,74.6168996 136.36507,75.0427836 C140.506841,75.419162 146.923385,76.3835044 150.839001,77.7398229 C159.28607,80.6660801 164.542612,83.4431423 172.240934,89.3763576 Z M168,109.164333 L176.844393,103.184469 C175.948878,102.196033 175.223226,101.294832 174.388183,100.51745 C173.982936,100.164338 173.477942,99.9569633 172.949109,99.9264984 C171.901398,99.8899157 170.837381,100.137552 169.800541,100.043985 C169.305222,99.9989603 168.856106,99.4333355 168.385248,99.1040913 C168.676052,98.77344 170.963079,97.2855092 171.71455,96.7290301 C172.278385,96.3103178 172.740558,95.7616937 173.064616,95.1264266 C173.642827,93.9508558 174.551251,91.4723781 174.551251,91.4723781 C174.551251,91.4723781 176.15679,92.2181023 176.130971,93.3268394 C176.108549,94.2793965 176.198916,95.2375817 176.288603,96.1880283 C176.321896,96.5313428 176.417698,96.9773703 176.649391,97.172947 C177.642746,98.0080174 178.697251,98.7664048 179.831252,99.6296158 C180.103032,99.1723321 180.32793,98.8402737 180.503227,98.4814819 C181.718083,95.9910446 182.905081,93.4865369 184.145076,91.0087628 C184.348911,90.6028356 184.726005,90.0759041 185.091549,90.0111808 C185.887864,89.8704781 186.903641,91.0882598 186.803082,91.9472496 C186.378426,95.5773787 185.952411,99.2068042 185.475438,102.829898 C185.348381,103.796526 185.430594,104.568983 186.207205,105.255612 C190.487736,109.039811 191.682888,113.627421 186.96615,111.427535 C185.510769,110.747941 184.147114,109.822118 182.840533,108.861822 C182.17807,108.374991 181.634511,108.22866 180.850426,108.439714 C177.589069,109.307146 174.308008,110.102819 171.036459,110.935779 C169.015097,111.44653 168.758945,111.312159 168,109.164333 Z" id="icon/云货架" transform="translate(160.000000, 90.000000) scale(-1, 1) rotate(180.000000) translate(-160.000000, -90.000000) "></path>
                </g>
            </g>
        </g>
    </g>
</svg>