<?xml version="1.0" encoding="UTF-8"?>
<svg width="61px" height="60px" viewBox="0 0 61 60" version="1.1" xmlns="http://www.w3.org/2000/svg" xmlns:xlink="http://www.w3.org/1999/xlink">
    <!-- Generator: Sketch 52 (66869) - http://www.bohemiancoding.com/sketch -->
    <title>icon/收藏间</title>
    <desc>Created with Sketch.</desc>
    <defs>
        <radialGradient cx="0%" cy="0%" fx="0%" fy="0%" r="139.465418%" gradientTransform="translate(0.000000,0.000000),scale(0.984751,1.000000),rotate(43.270432),translate(-0.000000,-0.000000)" id="radialGradient-1">
            <stop stop-color="#FFF8F8" offset="0%"></stop>
            <stop stop-color="#FF4C48" offset="100%"></stop>
        </radialGradient>
    </defs>
    <g id="Page-1" stroke="none" stroke-width="1" fill="none" fill-rule="evenodd">
        <g id="20181011_官网首页" transform="translate(-1410.000000, -805.000000)" fill="url(#radialGradient-1)">
            <g id="产品解决方案" transform="translate(320.000000, 450.000000)">
                <g id="试衣秀" transform="translate(960.000000, 300.000000)">
                    <path d="M184.145589,98.3005059 L181.916335,94.0954522 C181.577098,93.4520323 180.845618,93.0412335 180.043464,93.0412335 C179.24131,93.0412335 178.508063,93.4520323 178.168826,94.0954522 L174.926638,100.214541 L167.466956,101.222565 C166.698372,101.324852 166.060535,101.801643 165.813175,102.451662 C165.567582,103.104981 165.753102,103.822641 166.295528,104.31428 L171.762192,109.275213 L171.3609,111.458021 L139.981756,111.458021 C139.060745,111.458021 138.258811,110.829051 138.039359,109.934567 L130.05807,77.4029063 C129.794881,76.3301503 130.451165,75.2471529 131.52392,74.9839639 C131.67988,74.9457008 131.839881,74.9263604 132.000466,74.9263604 L187.003442,74.9263604 C188.108012,74.9263604 189.003442,75.8217909 189.003442,76.9263604 C189.003442,77.0770517 188.986412,77.2272603 188.952675,77.3741265 L184.145589,98.3005059 Z M173.150855,90.3240025 C174.665161,90.3240025 175.892601,89.106683 175.892601,87.605902 C175.892601,86.10686 174.665161,84.8895406 173.150855,84.8895406 C171.634811,84.8895406 170.405632,86.10686 170.405632,87.605902 C170.405632,89.106683 171.634811,90.3240025 173.150855,90.3240025 Z M147.74056,90.3240025 C149.256382,90.3240025 150.484045,89.106683 150.484045,87.605902 C150.484045,86.10686 149.256382,84.8895406 147.74056,84.8895406 C146.224738,84.8895406 144.997076,86.10686 144.997076,87.605902 C144.997076,89.106683 146.224738,90.3240025 147.74056,90.3240025 Z M159.207976,94.7323433 C156.056698,94.7323433 153.118044,94.2547164 150.484045,93.3907165 C152.843536,96.5108238 156.207439,98.4756954 159.95692,98.4756954 C163.842862,98.4756954 167.32101,96.3652059 169.688435,93.0412335 C166.770409,94.1537546 163.249419,94.7323433 159.207976,94.7323433 Z M186.368822,107.600671 C185.296338,108.567451 185.428853,109.045891 185.847598,110.113308 L186.545508,114.874616 L181.748484,111.911584 C181.151285,111.264865 179.79787,111.162578 179.078758,111.725158 L173.54142,115 L174.806491,109.832843 C174.951374,108.884211 174.765854,107.988373 174.004337,107.440641 L169.285055,103.560324 C169.285055,103.560324 176.235881,102.885558 175.856006,102.890507 C176.037993,102.803068 177.718276,102.375771 178.096384,101.18132 L180.213082,96.2649322 L182.08242,101.113679 C182.570073,102.057361 183.071862,102.761823 184.15318,102.961449 L190.929087,103.883684 L186.368822,107.600671 Z M175.628805,70.9342274 C172.969515,63.5559832 167.78866,59.8668611 160.08624,59.8668611 C152.351521,59.8668611 146.587172,63.6613483 142.793192,71.2503228 L142.793174,71.2503138 C142.623795,71.5891173 142.277525,71.8031369 141.898741,71.8031369 L139.378589,71.8031369 C138.324611,71.8031369 137.470193,70.9487191 137.470193,69.8947413 C137.470193,69.5637505 137.55628,69.2384503 137.719999,68.9507856 C143.013181,59.6502559 150.468605,55 160.08624,55 C170.178991,55 177.357072,60.1210537 181.620484,70.3631611 C181.832714,70.8730341 181.591438,71.4584187 181.081569,71.6706584 C180.948318,71.7261257 180.804639,71.7520904 180.660403,71.7467684 L176.532714,71.5944906 C176.124918,71.579444 175.767171,71.318127 175.628805,70.9342274 Z" id="icon/收藏间"></path>
                </g>
            </g>
        </g>
    </g>
</svg>