<?xml version="1.0" encoding="UTF-8"?>
<svg width="75px" height="55px" viewBox="0 0 75 55" version="1.1" xmlns="http://www.w3.org/2000/svg" xmlns:xlink="http://www.w3.org/1999/xlink">
    <!-- Generator: Sketch 52 (66869) - http://www.bohemiancoding.com/sketch -->
    <title>icon/电子会员</title>
    <desc>Created with Sketch.</desc>
    <defs>
        <radialGradient cx="0%" cy="0%" fx="0%" fy="0%" r="166.533932%" gradientTransform="translate(0.000000,0.000000),scale(0.733333,1.000000),rotate(35.031763),translate(-0.000000,-0.000000)" id="radialGradient-1">
            <stop stop-color="#FFF8F8" offset="0%"></stop>
            <stop stop-color="#F366B1" offset="100%"></stop>
        </radialGradient>
    </defs>
    <g id="Page-1" stroke="none" stroke-width="1" fill="none" fill-rule="evenodd">
        <g id="20181011_官网首页" transform="translate(-443.000000, -540.000000)" fill="url(#radialGradient-1)">
            <g id="产品解决方案" transform="translate(320.000000, 450.000000)">
                <g id="电子会员" transform="translate(0.000000, 30.000000)">
                    <path d="M132.988636,60 L132.545455,60 L132.545455,66.875 L136.636364,66.875 L136.636364,64.125 L193.909091,64.125 L193.909091,95.75 L191.181818,95.75 L191.181818,99.876375 L198,99.876375 L198,60 L132.988636,60 Z M137.4,91.161625 C135.735,89.621625 134.694545,87.45875 134.694545,85.004375 C134.694545,80.428375 138.399545,76.682875 143.019545,76.682875 C147.597273,76.682875 151.343182,80.38575 151.343182,85.004375 C151.343182,87.45875 150.302727,89.621625 148.637727,91.161625 C152.217273,92.784125 154.673182,96.111625 154.673182,100.855375 C154.673182,107.760625 149.470909,108.343625 143.019545,108.343625 C136.568182,108.343625 131.365909,107.760625 131.365909,100.855375 C131.365909,96.111625 133.779545,92.784125 137.4,91.161625 Z M164.661818,99.980875 L177.980455,99.980875 C178.895455,99.980875 179.645455,100.73025 179.645455,101.644625 C179.645455,102.560375 178.895455,103.30975 177.980455,103.30975 L164.661818,103.30975 C163.745455,103.30975 162.996818,102.560375 162.996818,101.644625 C162.996818,100.73025 163.745455,99.980875 164.661818,99.980875 Z M164.661818,93.3245 L177.980455,93.3245 C178.895455,93.3245 179.645455,94.073875 179.645455,94.989625 C179.645455,95.904 178.895455,96.653375 177.980455,96.653375 L164.661818,96.653375 C163.745455,96.653375 162.996818,95.904 162.996818,94.989625 C162.996818,94.073875 163.745455,93.3245 164.661818,93.3245 Z M164.661818,86.668125 L177.980455,86.668125 C178.895455,86.668125 179.645455,87.4175 179.645455,88.331875 C179.645455,89.247625 178.895455,89.997 177.980455,89.997 L164.661818,89.997 C163.745455,89.997 162.996818,89.247625 162.996818,88.331875 C162.996818,87.4175 163.745455,86.668125 164.661818,86.668125 Z M164.661818,80.01175 L171.320455,80.01175 C172.236818,80.01175 172.985455,80.761125 172.985455,81.6755 C172.985455,82.59125 172.236818,83.33925 171.320455,83.33925 L164.661818,83.33925 C163.745455,83.33925 162.996818,82.59125 162.996818,81.6755 C162.996818,80.761125 163.745455,80.01175 164.661818,80.01175 Z M123,115 L188.454545,115 L188.454545,69.625 L123,69.625 L123,115 Z" id="icon/电子会员"></path>
                </g>
            </g>
        </g>
    </g>
</svg>