<?xml version="1.0" encoding="UTF-8"?>
<svg width="55px" height="45px" viewBox="0 0 55 45" version="1.1" xmlns="http://www.w3.org/2000/svg" xmlns:xlink="http://www.w3.org/1999/xlink">
    <!-- Generator: Sketch 52 (66869) - http://www.bohemiancoding.com/sketch -->
    <title>icon/人数</title>
    <desc>Created with Sketch.</desc>
    <defs>
        <radialGradient cx="0%" cy="0%" fx="0%" fy="0%" r="154.025578%" gradientTransform="translate(0.000000,0.000000),scale(0.828021,1.000000),rotate(38.363415),translate(-0.000000,-0.000000)" id="radialGradient-1">
            <stop stop-color="#FFF8F8" offset="0%"></stop>
            <stop stop-color="#FF4C48" offset="100%"></stop>
        </radialGradient>
    </defs>
    <g id="Page-1" stroke="none" stroke-width="1" fill="none" fill-rule="evenodd">
        <g id="20181011_官网首页" transform="translate(-933.000000, -1809.000000)" fill="url(#radialGradient-1)" fill-rule="nonzero">
            <g id="天狗数据概览" transform="translate(0.000000, 1558.000000)">
                <g id="数据" transform="translate(320.000000, 203.000000)">
                    <g transform="translate(512.000000, 20.000000)" id="icon/人数">
                        <path d="M135.347369,48.8175648 C139.261173,45.7560731 140.801253,40.5484507 139.182141,35.850678 C137.563029,31.1529054 133.14145,28 128.172487,28 C123.203524,28 118.781945,31.1529054 117.162833,35.850678 C115.543721,40.5484507 117.083801,45.7560731 120.997605,48.8175648 C113.581773,51.8568832 108.745112,59.0844366 108.763777,67.0989028 L108.763777,71.0380382 C108.75878,72.1154031 109.627202,72.993303 110.704558,73 L145.640284,73 C146.717692,72.9933516 147.586174,72.1154104 147.581153,71.037994 L147.581153,67.0989028 C147.60023,59.0843121 142.763429,51.8565502 135.347325,48.8175648 L135.347369,48.8175648 Z M146.99864,48.1067251 C148.623275,46.2892635 149.521594,43.9370891 149.522066,41.4993429 C149.554737,36.1029872 145.213976,31.6980603 139.817722,31.6515487 C139.657733,31.6515487 139.506854,31.6922755 139.348369,31.6998371 C140.198217,32.9499995 140.837057,34.3312045 141.239401,35.7883484 L141.219812,35.7883484 C142.700089,40.239567 141.69328,45.1423793 138.578628,48.6500145 C139.463032,49.0529932 149.50398,53.2818593 149.50398,67.0973551 L153.405351,67.0973551 C154.480656,67.0857456 155.346238,66.2107168 155.346176,65.1353491 L155.346176,62.0837131 C155.381048,56.2344331 152.165045,50.84959 146.99864,48.1066809 L146.99864,48.1067251 Z M117.748216,48.6515622 C114.633056,45.1442158 113.625685,40.2413716 115.105573,35.7898961 C115.507092,34.3322473 116.145442,32.9504956 116.995102,31.6998814 C116.844178,31.6998814 116.693255,31.6515929 116.527252,31.6515929 C111.130684,31.6972805 106.789457,36.1026405 106.822908,41.4992987 C106.823651,43.937008 107.721934,46.289103 109.346334,48.1067251 C104.179791,50.8492606 100.964124,56.2344943 101.000302,62.0837131 L101.000302,65.1293351 C100.995256,66.2067516 101.863719,67.0847127 102.941127,67.0913854 L106.822908,67.0913854 C106.821405,53.283407 116.863812,49.0545409 117.748216,48.6515622 Z"></path>
                    </g>
                </g>
            </g>
        </g>
    </g>
</svg>