<?xml version="1.0" encoding="UTF-8"?>
<svg width="65px" height="65px" viewBox="0 0 65 65" version="1.1" xmlns="http://www.w3.org/2000/svg" xmlns:xlink="http://www.w3.org/1999/xlink">
    <!-- Generator: Sketch 52 (66869) - http://www.bohemiancoding.com/sketch -->
    <title>icon/智能停车</title>
    <desc>Created with Sketch.</desc>
    <defs>
        <radialGradient cx="0%" cy="0%" fx="0%" fy="0%" r="138.342001%" id="radialGradient-1">
            <stop stop-color="#FFF8F8" offset="0%"></stop>
            <stop stop-color="#6ED232" offset="100%"></stop>
        </radialGradient>
    </defs>
    <g id="Page-1" stroke="none" stroke-width="1" fill="none" fill-rule="evenodd">
        <g id="20181011_官网首页" transform="translate(-448.000000, -800.000000)" fill="url(#radialGradient-1)" fill-rule="nonzero">
            <g id="产品解决方案" transform="translate(320.000000, 450.000000)">
                <g id="智能停车" transform="translate(0.000000, 300.000000)">
                    <path d="M160.5,115 C142.550746,115 128,100.449254 128,82.5 C128,64.5507456 142.550746,50 160.5,50 C178.449254,50 193,64.5507456 193,82.5 C193,100.449254 178.449254,115 160.5,115 Z M148.724638,68.6693017 L148.724638,101.485883 C148.724638,103.226573 150.150145,104.637681 151.908597,104.637681 C153.667049,104.637681 155.092556,103.226573 155.092556,101.485883 L155.092556,88.1891013 L162.48316,88.1891013 C168.93178,88.1891013 174.15942,83.0142658 174.15942,76.6307825 C174.15942,70.2472993 168.93178,65.0724638 162.48316,65.0724638 L152.358178,65.0724638 C150.351429,65.0724638 148.724638,66.682823 148.724638,68.6693017 Z M163.169082,78.2608696 L156.26087,78.2608696 L156.26087,70.7246377 L163.169082,70.7246377 C165.076732,70.7246377 166.623188,72.4116807 166.623188,74.4927536 C166.623188,76.5738266 165.076732,78.2608696 163.169082,78.2608696 Z" id="icon/智能停车"></path>
                </g>
            </g>
        </g>
    </g>
</svg>