<?xml version="1.0" encoding="UTF-8"?>
<svg width="68px" height="54px" viewBox="0 0 68 54" version="1.1" xmlns="http://www.w3.org/2000/svg" xmlns:xlink="http://www.w3.org/1999/xlink">
    <!-- Generator: Sketch 52 (66869) - http://www.bohemiancoding.com/sketch -->
    <title>icon/扫码购</title>
    <desc>Created with Sketch.</desc>
    <defs>
        <radialGradient cx="0%" cy="0%" fx="0%" fy="0%" r="156.491253%" gradientTransform="translate(0.000000,0.000000),scale(0.794165,1.000000),rotate(140.281713),translate(-0.000000,-0.000000)" id="radialGradient-1">
            <stop stop-color="#FFF8F8" offset="0%"></stop>
            <stop stop-color="#FF5B00" offset="100%"></stop>
        </radialGradient>
    </defs>
    <g id="Page-1" stroke="none" stroke-width="1" fill="none" fill-rule="evenodd">
        <g id="20181011_官网首页" transform="translate(-766.000000, -810.000000)" fill="url(#radialGradient-1)">
            <g id="产品解决方案" transform="translate(320.000000, 450.000000)">
                <g id="扫码购" transform="translate(320.000000, 300.000000)">
                    <path d="M131.433484,110.669495 L141.584375,110.669495 C142.13666,110.669495 142.584375,111.11721 142.584375,111.669495 L142.584375,113 C142.584375,113.552285 142.13666,114 141.584375,114 L130,114 C127.790861,114 126,112.209139 126,110 L126,98.125 C126,97.5727153 126.447715,97.125 127,97.125 L128.433484,97.125 C128.985769,97.125 129.433484,97.5727153 129.433484,98.125 L129.433484,108.669495 C129.433484,109.774064 130.328914,110.669495 131.433484,110.669495 Z M131.433484,63.3305054 L141.584375,63.3305054 C142.13666,63.3305054 142.584375,62.8827901 142.584375,62.3305054 L142.584375,61 C142.584375,60.4477153 142.13666,60 141.584375,60 L130,60 C127.790861,60 126,61.790861 126,64 L126,75.875 C126,76.4272847 126.447715,76.875 127,76.875 L128.433484,76.875 C128.985769,76.875 129.433484,76.4272847 129.433484,75.875 L129.433484,65.3305054 C129.433484,64.2259359 130.328914,63.3305054 131.433484,63.3305054 Z M188.562453,110.669495 L178.411562,110.669495 C177.859277,110.669495 177.411562,111.11721 177.411562,111.669495 L177.411562,113 C177.411562,113.552285 177.859277,114 178.411562,114 L189.995937,114 C192.205076,114 193.995937,112.209139 193.995937,110 L193.995937,98.125 C193.995937,97.5727153 193.548222,97.125 192.995937,97.125 L191.562453,97.125 C191.010168,97.125 190.562453,97.5727153 190.562453,98.125 L190.562453,108.669495 C190.562453,109.774064 189.667023,110.669495 188.562453,110.669495 Z M188.562453,63.3305054 L178.411562,63.3305054 C177.859277,63.3305054 177.411562,62.8827901 177.411562,62.3305054 L177.411562,61 C177.411562,60.4477153 177.859277,60 178.411562,60 L189.995937,60 C192.205076,60 193.995937,61.790861 193.995937,64 L193.995937,75.875 C193.995937,76.4272847 193.548222,76.875 192.995937,76.875 L191.562453,76.875 C191.010168,76.875 190.562453,76.4272847 190.562453,75.875 L190.562453,65.3305054 C190.562453,64.2259359 189.667023,63.3305054 188.562453,63.3305054 Z M179.07,78.5909821 C178.979725,78.5722119 178.887439,78.5625 178.793593,78.5625 L159.445156,78.5625 C158.376571,78.5625 157.510312,79.8216991 157.510312,81.375 L157.510312,92.625 C157.510312,94.1783009 158.376571,95.4375 159.445156,95.4375 L178.793593,95.4375 C178.887439,95.4375 178.979725,95.4277881 179.07,95.4090179 L179.07,100.5 C179.07,102.363961 177.584984,103.875 175.753125,103.875 L144.242812,103.875 C142.410953,103.875 140.925937,102.363961 140.925937,100.5 L140.925937,73.5 C140.925937,71.636039 142.410953,70.125 144.242812,70.125 L175.753125,70.125 C177.584984,70.125 179.07,71.636039 179.07,73.5 L179.07,78.5909821 Z M162.485625,81.9375 L179.07,81.9375 C179.985929,81.9375 180.728437,82.6930195 180.728437,83.625 L180.728437,90.375 C180.728437,91.3069805 179.985929,92.0625 179.07,92.0625 L162.485625,92.0625 C161.569695,92.0625 160.827187,91.3069805 160.827187,90.375 L160.827187,83.625 C160.827187,82.6930195 161.569695,81.9375 162.485625,81.9375 Z M175.753125,88.6875 C176.669054,88.6875 177.411562,87.9319805 177.411562,87 C177.411562,86.0680195 176.669054,85.3125 175.753125,85.3125 C174.837195,85.3125 174.094687,86.0680195 174.094687,87 C174.094687,87.9319805 174.837195,88.6875 175.753125,88.6875 Z" id="icon/扫码购"></path>
                </g>
            </g>
        </g>
    </g>
</svg>