<?xml version="1.0" encoding="UTF-8"?>
<svg width="78px" height="95px" viewBox="0 0 78 95" version="1.1" xmlns="http://www.w3.org/2000/svg" xmlns:xlink="http://www.w3.org/1999/xlink">
    <!-- Generator: Sketch 52 (66869) - http://www.bohemiancoding.com/sketch -->
    <title>icon/iphone</title>
    <desc>Created with Sketch.</desc>
    <defs>
        <radialGradient cx="0%" cy="0%" fx="0%" fy="0%" r="154.109085%" gradientTransform="translate(0.000000,0.000000),scale(1.000000,0.815253),rotate(49.541959),translate(-0.000000,-0.000000)" id="radialGradient-1">
            <stop stop-color="#FFF8F8" offset="0%"></stop>
            <stop stop-color="#FF4C48" offset="100%"></stop>
        </radialGradient>
    </defs>
    <g id="Page-1" stroke="none" stroke-width="1" fill="none" fill-rule="evenodd">
        <g id="20181011_下载" transform="translate(-441.000000, -442.000000)" fill="url(#radialGradient-1)">
            <g id="下载">
                <g id="iphone" transform="translate(380.000000, 412.000000)">
                    <g id="text" transform="translate(61.000000, 30.000000)">
                        <path d="M74.8532979,32.2825379 C60.0245358,41.885924 61.7933572,62.6605237 77.4490498,69.780039 C76.7587279,71.5162011 76.1202876,73.2896881 75.3588621,75.0087742 C72.9007453,80.5570095 69.6134586,85.5909093 65.5439377,90.0771614 C60.947391,95.1440003 56.1414522,96.070588 49.8117293,93.5135606 C47.5380903,92.595371 45.1737521,91.7936347 42.7755416,91.3194234 C39.5025316,90.672305 36.2906409,91.3366861 33.2129328,92.601343 C31.9217753,93.1318214 30.6347236,93.6753635 29.3253703,94.1573197 C24.882695,95.7927983 20.8787724,95.0561005 17.3491546,91.8735097 C13.4692436,88.3749647 10.4869936,84.1528789 7.92614044,79.6648539 C2.52785742,70.2037685 -0.472868321,60.0526413 0.0609693537,49.0725306 C0.463237177,40.7955739 3.22163178,33.4858888 9.89586243,28.1466723 C14.5859077,24.3945987 19.9759793,22.506618 26.0155954,23.3537039 C28.357632,23.682162 30.6123287,24.6555922 32.8952989,25.3720414 C33.7816692,25.650111 34.6514299,25.9946187 35.5019683,26.3700127 C38.0064611,27.4751995 40.4477817,27.3766621 43.0051823,26.3936206 C46.1045388,25.2024003 49.2375809,23.9888783 52.4626286,23.2551665 C60.6432874,21.393593 70.4348837,25.4402524 74.8532979,32.2825379 Z M57.5579277,0.00154819634 C58.9046991,10.5043682 49.2873162,22.5541138 38.7087268,21.7578829 C36.1460074,13.0560768 47.5575925,-0.164453766 57.5579277,0.00154819634 Z" id="icon/iphone"></path>
                    </g>
                </g>
            </g>
        </g>
    </g>
</svg>