<?xml version="1.0" encoding="UTF-8"?>
<svg width="82px" height="95px" viewBox="0 0 82 95" version="1.1" xmlns="http://www.w3.org/2000/svg" xmlns:xlink="http://www.w3.org/1999/xlink">
    <!-- Generator: Sketch 52 (66869) - http://www.bohemiancoding.com/sketch -->
    <title>icon/触屏版</title>
    <desc>Created with Sketch.</desc>
    <defs>
        <radialGradient cx="0%" cy="0%" fx="0%" fy="0%" r="149.519282%" gradientTransform="translate(0.000000,0.000000),scale(1.000000,0.860000),rotate(48.024709),translate(-0.000000,-0.000000)" id="radialGradient-1">
            <stop stop-color="#FFF8F8" offset="0%"></stop>
            <stop stop-color="#666666" offset="100%"></stop>
        </radialGradient>
    </defs>
    <g id="Page-1" stroke="none" stroke-width="1" fill="none" fill-rule="evenodd">
        <g id="20181011_下载" transform="translate(-879.000000, -442.000000)" fill="url(#radialGradient-1)">
            <g id="下载">
                <g id="触屏版" transform="translate(820.000000, 412.000000)">
                    <g id="text" transform="translate(59.000000, 30.000000)">
                        <path d="M70.6943006,5.93741716 C70.6943006,2.65714433 68.0266714,0 64.7362941,0 L17.0718423,0 C13.7815979,0 11.1139687,2.6570117 11.1139687,5.93741716 L11.1139687,28.2031623 L4,28.2031623 C1.790861,28.2031623 -2.705415e-16,29.9940233 0,32.2031623 L0,61.3125166 C2.705415e-16,63.5216556 1.790861,65.3125166 4,65.3125166 L11.1139687,65.3125166 L11.1139687,89.0624503 C11.1139687,92.3415303 13.7815979,95 17.0718423,95 L64.7362941,95 C68.0266716,95 70.6943006,92.3415302 70.6943006,89.0624503 L70.6943006,65.3125166 L77.7,65.3125166 C79.909139,65.3125166 81.7,63.5216556 81.7,61.3125166 L81.7,32.2031623 C81.7,29.9940233 79.909139,28.2031623 77.7,28.2031623 L70.6943006,28.2031623 L70.6943006,5.93741716 Z M64.736427,7.42187086 L64.736427,28.2031623 L17.0726404,28.2031623 L17.0718423,7.42187086 L64.736427,7.42187086 Z M40.9045337,92.0310926 C39.259478,92.0310926 37.9240673,90.7018577 37.9240673,89.0624503 C37.9240673,87.423043 39.259478,86.0938081 40.9045337,86.0938081 C42.5495894,86.0938081 43.883537,87.423043 43.883537,89.0624503 C43.883537,90.7018577 42.5495895,92.0310926 40.9045337,92.0310926 Z M64.736427,83.1249005 L17.0718423,83.1249005 L17.0726404,65.3125166 L64.736427,65.3125166 L64.736427,83.1249005 Z M15.7749226,58.4095114 L11.2070312,34.711615 L15.1614952,34.711615 L18.0457909,50.9898638 L21.5435141,34.711615 L26.1374392,34.711615 L29.491553,51.2645491 L32.4280373,34.711615 L36.3173564,34.711615 L31.6711217,58.4095114 L27.5730484,58.4095114 L23.762315,40.6926863 L19.9644167,58.4095114 L15.7749226,58.4095114 Z M54.0671576,58.4095114 L49.8645861,58.4095114 L48.194189,53.02661 L40.5460829,53.02661 L38.9669854,58.4095114 L34.8689121,58.4095114 L42.3209782,34.711615 L46.405974,34.711615 L54.0671576,58.4095114 Z M46.9542566,49.0338628 L44.3180684,40.240034 L41.7337055,49.0338628 L46.9542566,49.0338628 Z M56.1160731,58.4095114 L56.1160731,34.711615 L62.3153716,34.711615 C64.6644622,34.711615 66.1958512,34.8303435 66.9092967,35.0672972 C68.0056197,35.4229794 68.9234602,36.1963494 69.6630605,37.3870298 C70.4024185,38.5779616 70.7724609,40.1164006 70.7724609,42.0020951 C70.7724609,43.4568959 70.5591054,44.6801511 70.1328787,45.6714833 C69.7065308,46.6630671 69.1649081,47.4415937 68.5080103,48.0073146 C67.8509915,48.5731613 67.1834381,48.9477093 66.5047446,49.1308328 C65.5824239,49.3572218 64.2469538,49.4702905 62.4979711,49.4702905 L59.9791163,49.4702905 L59.9791163,58.4095114 L56.1160731,58.4095114 Z M59.9792373,38.7205866 L61.8456745,38.7205866 C63.2375712,38.7205866 64.16413,38.7747942 64.6254721,38.882329 C65.251977,39.0224386 65.7695035,39.3728384 66.1785358,39.9330254 C66.5874471,40.493464 66.7919633,41.2047027 66.7919633,42.0667417 C66.7919633,42.7672898 66.6461743,43.3816844 66.3547176,43.9095481 C66.0631397,44.4376633 65.6607671,44.8256688 65.1474787,45.073439 C64.6339481,45.3214607 63.6159685,45.4452201 62.0935399,45.4452201 L59.9792373,45.4452201 L59.9792373,38.7205866 Z M60.6526325,14.3127938 C60.6526325,15.3945308 59.7675371,16.2796261 58.6858002,16.2796261 L22.9668323,16.2796261 C21.8850953,16.2796261 21,15.3945308 21,14.3127938 L21,13.9668323 C21,12.8850953 21.8850953,12 22.9668323,12 L58.6859389,12 C59.7676759,12 60.6527712,12.8850953 60.6527712,13.9668323 L60.6527712,14.3127938 L60.6526325,14.3127938 Z M40.7683784,22.3130714 C40.7683784,23.3948083 39.8832831,24.2799037 38.8015461,24.2799037 L22.9668323,24.2799037 C21.8850953,24.2799037 21,23.3948083 21,22.3130714 L21,21.9668323 C21,20.8850953 21.8850953,20 22.9668323,20 L38.8015461,20 C39.8832831,20 40.7683784,20.8850953 40.7683784,21.9668323 L40.7683784,22.3130714 Z M40.7683784,72.3127301 C40.7683784,73.3945021 39.8832831,74.2796261 38.8015461,74.2796261 L22.9668323,74.2796261 C21.8850953,74.2796261 21,73.3945021 21,72.3127301 L21,71.9668961 C21,70.8851241 21.8850953,70 22.9668323,70 L38.8015461,70 C39.8832831,70 40.7683784,70.8851241 40.7683784,71.9668961 L40.7683784,72.3127301 Z" id="icon/触屏版"></path>
                    </g>
                </g>
            </g>
        </g>
    </g>
</svg>