<?xml version="1.0" encoding="UTF-8"?>
<svg width="110px" height="95px" viewBox="0 0 110 95" version="1.1" xmlns="http://www.w3.org/2000/svg" xmlns:xlink="http://www.w3.org/1999/xlink">
    <!-- Generator: Sketch 52 (66869) - http://www.bohemiancoding.com/sketch -->
    <title>icon/WeChat</title>
    <desc>Created with Sketch.</desc>
    <defs>
        <radialGradient cx="0%" cy="0%" fx="0%" fy="0%" r="150.152294%" gradientTransform="translate(0.000000,0.000000),scale(0.863636,1.000000),rotate(39.543010),translate(-0.000000,-0.000000)" id="radialGradient-1">
            <stop stop-color="#FFF8F8" offset="0%"></stop>
            <stop stop-color="#666666" offset="100%"></stop>
        </radialGradient>
    </defs>
    <g id="Page-1" stroke="none" stroke-width="1" fill="none" fill-rule="evenodd">
        <g id="20181011_下载" transform="translate(-1085.000000, -436.000000)" fill="url(#radialGradient-1)">
            <g id="下载">
                <g id="WeChat" transform="translate(1040.000000, 412.000000)">
                    <g id="text" transform="translate(45.000000, 24.000000)">
                        <path d="M74.652829,28.7052778 C75.9177737,28.7052778 77.1695637,28.8009273 78.4106628,28.9476509 C75.0334006,12.3396501 58.2215132,0 39.030246,0 C17.5742565,0 0,15.4423821 0,35.0542984 C0,46.3787975 5.84698575,55.6705339 15.6180336,62.8826719 L11.7143613,75.2818497 L25.3586585,68.0569961 C30.240615,69.0759029 34.1580997,70.1268223 39.0300342,70.1268223 C40.2548683,70.1268223 41.4688999,70.0622319 42.6737902,69.9625676 C41.9115326,67.2084546 41.4690115,64.3224409 41.4690115,61.3253542 C41.4692233,43.3175912 56.1120829,28.7052778 74.652829,28.7052778 Z M53.3916959,16.6922533 C56.7242881,16.6922533 59.4257345,19.5454419 59.4257345,23.0651509 C59.4257345,26.5848599 56.724277,29.4379308 53.3916959,29.4379308 C50.0588808,29.4379308 47.3574344,26.5847422 47.3574344,23.0651509 C47.3574344,19.5455597 50.0591038,16.6922533 53.3916959,16.6922533 Z M26.0835925,29.5664171 C22.7510004,29.5664171 20.049331,26.7132285 20.049331,23.1936373 C20.049331,19.674046 22.7510115,16.8208574 26.0835925,16.8208574 C29.4164077,16.8208574 32.1179656,19.674046 32.1179656,23.1936373 C32.1179656,26.7131108 29.4164077,29.5664171 26.0835925,29.5664171 Z M110,60.9642787 C110,44.4845169 94.3858682,31.0511382 76.8481438,31.0511382 C58.2774317,31.0511382 43.6517289,44.4845168 43.6517289,60.9642787 C43.6517289,77.4725094 58.2774318,90.8765951 76.8481438,90.8765951 C80.7344363,90.8765951 84.6552655,89.8405105 88.5589377,88.8071221 L99.2650377,95 L96.3289587,84.6988817 C104.163605,78.4916516 110,70.260595 110,60.9642787 Z M66.6495132,56.3444715 C64.2762759,56.3444715 62.3525718,54.3124153 62.3525718,51.8061972 C62.3525718,49.2997437 64.2763874,47.2681582 66.6495132,47.2681582 C69.0226391,47.2681582 70.9464546,49.2998613 70.9464546,51.8061972 C70.9466887,54.312533 69.0226502,56.3444715 66.6495132,56.3444715 Z M88.1057257,56.6019032 C85.7322655,56.6019032 83.8086728,54.5699647 83.8086728,52.0638643 C83.8086728,49.5572931 85.7323769,47.5258254 88.1057257,47.5258254 C90.4788516,47.5258254 92.4026672,49.5574107 92.4026672,52.0638643 C92.4027897,54.5699647 90.4788627,56.6019032 88.1057257,56.6019032 Z" id="icon/WeChat"></path>
                    </g>
                </g>
            </g>
        </g>
    </g>
</svg>